<?xml version="1.0" encoding="UTF-8"?>
<!-- Created with Inkscape (http://www.inkscape.org/) -->
<svg width="1920" height="1088" version="1.1" xmlns="http://www.w3.org/2000/svg" xmlns:cc="http://creativecommons.org/ns#" xmlns:dc="http://purl.org/dc/elements/1.1/" xmlns:rdf="http://www.w3.org/1999/02/22-rdf-syntax-ns#">
 <defs>
  <clipPath id="clipPath3771">
   <rect transform="matrix(1.002 0 0 1.002 -18.586 -379.31)" x="200" y="520" width="136.16" height="278.38" ry="0" fill="#0087e7" fill-opacity=".49804"/>
  </clipPath>
  <clipPath id="clipPath3787">
   <rect transform="matrix(-1.002 0 0 -1.002 382.22 941.73)" x="200" y="520" width="136.16" height="278.38" ry="0" fill="#0087e7" fill-opacity=".49804"/>
  </clipPath>
 </defs>
 <metadata>
  <rdf:RDF>
   <cc:Work rdf:about="">
    <dc:format>image/svg+xml</dc:format>
    <dc:type rdf:resource="http://purl.org/dc/dcmitype/StillImage"/>
   </cc:Work>
  </rdf:RDF>
 </metadata>
 <g transform="translate(-104.99 -658.56)">
  <g fill-opacity=".49804">
   <circle transform="matrix(3.479,0,0,3.479,990.24,343.08)" cx="181.82" cy="282.02" r="100.2" clip-path="url(#clipPath3787)" fill="#0087e7" stroke="#c8c600" stroke-linecap="round" stroke-linejoin="round" stroke-opacity=".49804" stroke-width="10.02"/>
   <circle transform="matrix(3.479,0,0,3.479,990.24,343.08)" cx="181.82" cy="282.02" r="100.2" clip-path="url(#clipPath3771)" fill="#0087e7" stroke-width="0"/>
   <path d="m1631.8 958.2c-3.0305-0.0349-6.0253 0.0488-9.0421 0.10807v17.321c192.53 0 348.6 156.08 348.6 348.6s-156.08 348.6-348.6 348.6v17.322c107.5-0.5425 215.26-46.893 282.26-132.03 100.36-120.03 113.59-306.68 22.877-436.08-65.203-97.794-178.39-162.54-296.1-163.84z" fill="#c8c600" stroke-width="0"/>
  </g>
  <text x="1254.5247" y="748.05072" fill="#000000" font-family="Arial" font-size="41.832px" letter-spacing="0px" stroke-width="3.486" word-spacing="0px" style="line-height:0%" xml:space="preserve"><tspan x="1254.5247" y="748.05072" font-size="69.721px" stroke-width="3.486" style="line-height:1.25">SVG 1.1</tspan></text>
  <text x="1989.8473" y="748.05072" fill="#000000" font-family="Arial" font-size="41.832px" letter-spacing="0px" stroke-width="3.486" text-align="end" text-anchor="end" word-spacing="0px" style="line-height:0%" xml:space="preserve"><tspan x="1989.8473" y="748.05072" font-size="69.721px" stroke-width="3.486" style="line-height:1.25">SSA V4+</tspan></text>
  <g fill-opacity=".49804">
   <circle transform="matrix(3.479,0,0,3.479,-125.29,343.08)" cx="181.82" cy="282.02" r="100.2" clip-path="url(#clipPath3787)" fill="#0087e7" stroke="#c8c600" stroke-linecap="round" stroke-linejoin="round" stroke-opacity=".49804" stroke-width="10.02"/>
   <path d="m507.26 940.77v34.86c192.53 0 348.6 156.08 348.6 348.6s-156.08 348.6-348.6 348.6v34.86c211.78 0 383.46-171.68 383.46-383.46s-171.68-383.46-383.46-383.46z" fill="#c8c600"/>
   <circle transform="matrix(3.479,0,0,3.479,-125.29,343.08)" cx="181.82" cy="282.02" r="100.2" clip-path="url(#clipPath3771)" fill="#0087e7" stroke-width="0"/>
  </g>
  <g font-family="Arial" font-size="41.832px" letter-spacing="0px" stroke-width="3.486" word-spacing="0px">
   <text x="141.22089" y="748.05072" style="line-height:0%" xml:space="preserve"><tspan x="141.22089" y="748.05072" font-size="69.721px" stroke-width="3.486" style="line-height:1.25">SVG 1.1</tspan></text>
   <text x="893.18585" y="748.05072" text-align="end" text-anchor="end" style="line-height:0%" xml:space="preserve"><tspan x="893.18585" y="748.05072" font-size="69.721px" stroke-width="3.486" style="line-height:1.25">SSA V4+</tspan></text>
   <text x="1532.1348" y="848.81317" style="line-height:0%" xml:space="preserve"><tspan x="1532.1348" y="848.81317" style="line-height:1.25">stroke preservation = 1,</tspan><tspan x="1532.1348" y="901.10382" style="line-height:1.25">i.e. preserve stroke area</tspan></text>
   <text x="403.77368" y="848.81317" style="line-height:0%" xml:space="preserve"><tspan x="403.77368" y="848.81317" style="line-height:1.25">stroke preservation = 0,</tspan><tspan x="403.77368" y="901.10382" style="line-height:1.25">i.e. preserve stroke width</tspan></text>
  </g>
  <path d="m1065 662.56v1080" fill="none" stroke="#000" stroke-width="3.486px"/>
 </g>
</svg>
